<?xml version="1.0" ?><svg id="Layer_1" style="enable-background:new -239 241 32 32;" version="1.1" viewBox="-239 241 32 32" xml:space="preserve" xmlns="http://www.w3.org/2000/svg" xmlns:xlink="http://www.w3.org/1999/xlink"><style type="text/css">
	.st0{fill:#3A5896;}
	.st1{fill:#FFFFFF;}
</style><circle class="st0" cx="-223" cy="257" id="XMLID_1_" r="15.1"/><g id="XMLID_2_"><path class="st1" d="M-225.1,267v-9.8h-2.1v-2.9h2.1V252c0-1.2,0.4-2.1,1.1-2.8c0.7-0.6,1.8-1,3.2-1c0.3,0,0.7,0,1,0   c0.4,0,0.7,0.1,1.1,0.1v3c-0.1,0-0.3,0-0.4,0c-0.2,0-0.4,0-0.7,0c-0.7,0-1.1,0.1-1.4,0.4c-0.3,0.3-0.4,0.7-0.4,1.4v1.2h2.8   l-0.5,2.9l-2.3,0v9.8H-225.1z" id="XMLID_4_"/></g></svg>